# Blender v2.79 (sub 0) OBJ File: ''
# www.blender.org
mtllib pokepyramid.mtl
o Cube_Cube.002
v -0.763796 -0.039318 1.959885
v 0.236204 1.960682 0.959885
v -0.763796 -0.039318 -0.040115
v 1.236204 -0.039318 1.959885
v 1.236204 -0.039318 -0.040115
vt 0.188174 0.652702
vt 0.416917 1.108408
vt 0.644236 0.651991
vt 0.543303 0.666366
vt 0.772046 1.122072
vt 0.999365 0.665654
vt 1.013328 0.240137
vt 0.781490 0.694275
vt 0.557281 0.236322
vt 0.675167 0.189143
vt 0.414014 0.711167
vt 0.153087 0.189030
vt 0.212510 0.673359
vt 0.212221 0.489144
vt 0.028006 0.489433
vt 0.028295 0.673648
vn -0.8944 0.4472 0.0000
vn 0.0000 0.4472 -0.8944
vn 0.8944 0.4472 0.0000
vn 0.0000 0.4472 0.8944
vn 0.0000 -1.0000 0.0000
usemtl Material.001
s off
f 1/1/1 2/2/1 3/3/1
f 3/4/2 2/5/2 5/6/2
f 5/7/3 2/8/3 4/9/3
f 4/10/4 2/11/4 1/12/4
f 3/13/5 5/14/5 4/15/5 1/16/5
